<svg xmlns="http://www.w3.org/2000/svg" viewBox="0 0 442.42 359"><defs><style>.cls-1,.cls-10,.cls-13{fill:#fff;}.cls-1,.cls-13{stroke:#000;}.cls-1,.cls-11,.cls-13,.cls-4,.cls-5,.cls-6,.cls-8{stroke-miterlimit:10;}.cls-1{stroke-width:7px;}.cls-2{font-size:94.79px;}.cls-2,.cls-3{font-family:OCRAStd, OCR A Std;}.cls-3{font-size:60px;}.cls-4{fill:#fff9e8;}.cls-4,.cls-5{stroke:#8c6239;}.cls-4,.cls-5,.cls-6{stroke-width:3px;}.cls-5,.cls-6{fill:#603813;}.cls-6{stroke:#754c24;}.cls-7{fill:#754c24;}.cls-8{fill:none;stroke:#fff;}.cls-9{fill:#ffadaf;}.cls-11,.cls-12{fill:#42210b;}.cls-11{stroke:#42210b;stroke-width:2px;}.cls-13{stroke-width:4px;}</style></defs><g id="Layer_1" data-name="Layer 1"><rect class="cls-1" x="69.82" y="109.64" width="369.1" height="179.94"/><text class="cls-2" transform="translate(73.82 242.12) scale(1.06 1)">&lt;WS/&gt;</text><text class="cls-3" transform="translate(81.58 344.66)">Woodstox</text></g><g id="Layer_2" data-name="Layer 2"><path class="cls-4" d="M194.87,139.78a21,21,0,0,1-4.19-3.76c-.14-.4-.28-.8-.43-1.2-11.73-31.21-50.84-44.42-87.35-29.5S46.3,157.65,58,188.86a51.2,51.2,0,0,0,2.81,6.2c.47,5.54,4,21.25,7.49,23.79a51,51,0,0,0,15.46,8c19.66,5.89,48.88-1.63,59.12-7,11.74-3.29,46.2-20.68,57-39.24A55.64,55.64,0,0,0,206,163.81C207.1,158.79,196.74,140.94,194.87,139.78Z" transform="translate(-45.63 -92.56)"/><path class="cls-5" d="M62.68,140.82l-15,1.86c.79,0,.39,1.24,0,1.92-1.48,2.34.19,5.52,2.65,6.59s5.34.66,8.05.22" transform="translate(-45.63 -92.56)"/><path class="cls-5" d="M155.22,103l12.19-9.23c-.58.56.52,1.19,1.28,1.38,2.61.67,3.46,4.18,2.35,6.71s-3.49,4.27-5.76,5.86" transform="translate(-45.63 -92.56)"/><path class="cls-6" d="M130.42,242c-5-2.35-11.22-2-17-.87,0-2.72-.09-5.43-.14-8.15a13.92,13.92,0,0,1-.44-4c0-.35-.09-.69-.11-1a1,1,0,0,1,0-.17,27.64,27.64,0,0,1-3.12.47c-1,.18-2.12.34-3.18.56-2.76.55-5.28,1.11-8,.58a3.59,3.59,0,0,1-1.35-.56c-.31,0-.62,0-.92,0a12.36,12.36,0,0,1-6.31-.6c-2.56,4.86-3.46,15.86-4.08,20.52-1.19,9.06,1.86,19.67,10.83,21.94,3.78,1,7.93.22,11.88-.73a115.43,115.43,0,0,0,16.71-5.41c4.68-1.92,9.68-4.59,11.53-9.11C138.87,250.22,135.48,244.38,130.42,242Z" transform="translate(-45.63 -92.56)"/><path class="cls-6" d="M208.8,190.4c-2.23-1.9-6.22-5.62-10.13-8.51a50.07,50.07,0,0,1-11.86,13.19,3.34,3.34,0,0,1,1,.81c1.2,1.41.59,3.63-.91,4.81-.22.17-.43.35-.64.53a2,2,0,0,1-.21.2l-.13.1h0c-.29.34-.59.67-.89,1a4.66,4.66,0,0,1-.9.72l-.27.28-.07.06a4.26,4.26,0,0,1-.52.52l.22.25c-4.95,3.3-9.74,7.39-11.91,12.7s-.85,12,4.2,14.35c4.3,2,9.71.42,14.4-1.49A115.47,115.47,0,0,0,206,222.05c3.52-2.1,7-4.5,9.19-7.88C220.24,206.15,215.57,196.2,208.8,190.4Z" transform="translate(-45.63 -92.56)"/><path class="cls-7" d="M111.77,239.57a63.52,63.52,0,0,0-15.38,11c-1.39,1.35.73,3.47,2.12,2.13a60.61,60.61,0,0,1,14.78-10.52c1.72-.87.2-3.46-1.52-2.59Z" transform="translate(-45.63 -92.56)"/><path class="cls-7" d="M181.59,208.43A34.22,34.22,0,0,1,201.48,202v-3A45.78,45.78,0,0,0,180,204.51c-1.7.92-.19,3.51,1.52,2.6A42.41,42.41,0,0,1,201.48,202a1.5,1.5,0,0,0,0-3,37.07,37.07,0,0,0-21.41,6.82c-1.56,1.11-.06,3.71,1.52,2.59Z" transform="translate(-45.63 -92.56)"/><path class="cls-7" d="M119.45,248.87a25.93,25.93,0,0,1,8.43,14c.42,1.88,3.32,1.09,2.89-.8a28.6,28.6,0,0,0-9.2-15.33,1.53,1.53,0,0,0-2.12,0,1.51,1.51,0,0,0,0,2.12Z" transform="translate(-45.63 -92.56)"/><path class="cls-7" d="M111.84,255a17.38,17.38,0,0,1,6.5,10.41,1.5,1.5,0,0,0,2.89-.8A20.09,20.09,0,0,0,114,252.86a1.57,1.57,0,0,0-2.13,0,1.53,1.53,0,0,0,0,2.13Z" transform="translate(-45.63 -92.56)"/><path class="cls-7" d="M180.22,216.21A22.51,22.51,0,0,0,184.1,231a1.56,1.56,0,0,0,2.06.54,1.52,1.52,0,0,0,.53-2.06,19.92,19.92,0,0,1-3.47-13.29,1.51,1.51,0,0,0-1.5-1.5,1.53,1.53,0,0,0-1.5,1.5Z" transform="translate(-45.63 -92.56)"/><path class="cls-7" d="M194.73,227.57A22.15,22.15,0,0,1,191,215.4a1.5,1.5,0,0,0-3,0,25.11,25.11,0,0,0,4.13,13.68,1.54,1.54,0,0,0,2.06.54,1.51,1.51,0,0,0,.53-2.05Z" transform="translate(-45.63 -92.56)"/><path class="cls-8" d="M88.42,176.21" transform="translate(-45.63 -92.56)"/><path class="cls-8" d="M92.87,176.12" transform="translate(-45.63 -92.56)"/><path class="cls-8" d="M88.75,177.11" transform="translate(-45.63 -92.56)"/><path class="cls-8" d="M96.46,150.8" transform="translate(-45.63 -92.56)"/><path class="cls-9" d="M165.57,164.89a7.37,7.37,0,0,0,1.24.85,14.06,14.06,0,0,0,2,.93,3,3,0,0,0,1.86,0,2.3,2.3,0,0,0,.87-.47,2.09,2.09,0,0,0,.88-2.24,1.89,1.89,0,0,0-1.14-1.14,12.14,12.14,0,0,1-1.38-.62l.5.27a7.78,7.78,0,0,1-1.32-.88,1.67,1.67,0,0,0-.78-.35,2.08,2.08,0,0,0-.93-.08,2.22,2.22,0,0,0-1,.27,2.17,2.17,0,0,0-.81.52,2.13,2.13,0,0,0-.72,1.51l.08.54a1.75,1.75,0,0,0,.64.87Z" transform="translate(-45.63 -92.56)"/><path class="cls-9" d="M170.65,158.39l3.14,4.61c.19.27.94.35,1.19.37a6.58,6.58,0,0,0,1.93-.09,3.39,3.39,0,0,0,1.45-.5l.23-.21a.29.29,0,0,0,0-.42l-3.15-4.61c-.19-.27-.94-.35-1.19-.37a6.51,6.51,0,0,0-1.92.09,3.39,3.39,0,0,0-1.46.5l-.23.21a.28.28,0,0,0,0,.42Z" transform="translate(-45.63 -92.56)"/><path class="cls-9" d="M176.07,155.65l4.56,4.39a1.74,1.74,0,0,0,.64.5,2.26,2.26,0,0,0,.84.32,3.35,3.35,0,0,0,1.93-.15,2,2,0,0,0,1.16-1,1.32,1.32,0,0,0-.23-1.36l-4.57-4.39a1.71,1.71,0,0,0-.63-.5,2.3,2.3,0,0,0-.85-.32,3.43,3.43,0,0,0-1.93.15,2,2,0,0,0-1.16,1,1.33,1.33,0,0,0,.24,1.35Z" transform="translate(-45.63 -92.56)"/><path class="cls-8" d="M158.78,145.46" transform="translate(-45.63 -92.56)"/><path class="cls-8" d="M155.45,148.55" transform="translate(-45.63 -92.56)"/><path class="cls-8" d="M159.12,146.36" transform="translate(-45.63 -92.56)"/><path class="cls-10" d="M167,146.66a8.17,8.17,0,0,0,3.44-.82c.76-.38.76-.69-.16-.69a8.18,8.18,0,0,0-3.44.83c-.76.38-.76.68.16.68Z" transform="translate(-45.63 -92.56)"/><path class="cls-11" d="M138.9,179.24c-.05-.12-.1-.24-.16-.36-1.62-3.52-7.82-7.67-10.4-9.8-.42,2.72-3.57,12.87-2.69,15.24,1.52,4.1,7.22,2.22,9,1.48C137.43,184.68,140.59,183.36,138.9,179.24Z" transform="translate(-45.63 -92.56)"/><path class="cls-12" d="M132.77,184.92a8.51,8.51,0,0,1,.9,7,11,11,0,0,1-1.57,3.37,13.06,13.06,0,0,1-2.62,2.68,14.32,14.32,0,0,1-3.25,1.74,11.55,11.55,0,0,1-3.64.67,8.64,8.64,0,0,1-3.66-.69,3.3,3.3,0,0,1-1.58-1.37,1.9,1.9,0,0,1-.2-1.06,1.49,1.49,0,0,1,.42-.87l.18.09a1.29,1.29,0,0,0,.14,1.42,2.37,2.37,0,0,0,1.32.77,8.82,8.82,0,0,0,3.2.15,12.59,12.59,0,0,0,5.88-2.46,11.28,11.28,0,0,0,3.91-5,10,10,0,0,0,.38-6.33Z" transform="translate(-45.63 -92.56)"/><path class="cls-12" d="M134.07,185.43a10.79,10.79,0,0,0,5.73,3.19,14.36,14.36,0,0,0,3.13.28,14,14,0,0,0,3.14-.38,18.08,18.08,0,0,0,3.12-.87,20.89,20.89,0,0,0,3-1.34,15.08,15.08,0,0,0,2.68-1.86,3.18,3.18,0,0,0,.89-1.1.93.93,0,0,0-.42-1.21l.05-.19a1.36,1.36,0,0,1,1,1.44,3.3,3.3,0,0,1-.72,1.69,12.42,12.42,0,0,1-2.61,2.51,17.66,17.66,0,0,1-6.6,2.89,13.62,13.62,0,0,1-7.19-.37,9.17,9.17,0,0,1-5.4-4.59Z" transform="translate(-45.63 -92.56)"/><path class="cls-9" d="M90.26,195.79a1.36,1.36,0,0,1,0,.2l.08-.54a9.26,9.26,0,0,1-.81,2.5l.25-.52c-.06.11-.11.22-.16.32a1.52,1.52,0,0,0-.29.78,1.36,1.36,0,0,0,0,.82,1.29,1.29,0,0,0,.45.67,1.45,1.45,0,0,0,.69.47,2.92,2.92,0,0,0,1.87,0l.6-.28a2.56,2.56,0,0,0,.89-.84,15,15,0,0,0,.9-2,11.42,11.42,0,0,0,.43-2,1.28,1.28,0,0,0-.2-.79,1.31,1.31,0,0,0-.52-.62,1.71,1.71,0,0,0-.79-.35,2,2,0,0,0-.92-.08,3,3,0,0,0-1.77.79l-.38.46a2.08,2.08,0,0,0-.34,1Z" transform="translate(-45.63 -92.56)"/><path class="cls-9" d="M82.6,196l.69,5.61c0,.31.56.45.78.5a5.6,5.6,0,0,0,1.78.07,5.44,5.44,0,0,0,1.74-.39c.23-.11.72-.3.68-.63l-.69-5.61c0-.31-.57-.44-.78-.5a5.66,5.66,0,0,0-1.79-.07,5.38,5.38,0,0,0-1.73.39c-.23.11-.72.3-.68.63Z" transform="translate(-45.63 -92.56)"/><path class="cls-9" d="M76.7,197.07l-.49,6.45a1.58,1.58,0,0,0,.72,1.25,3.14,3.14,0,0,0,1.76.53c1.06,0,2.43-.48,2.52-1.72l.49-6.45a1.63,1.63,0,0,0-.72-1.25,3.07,3.07,0,0,0-1.76-.54c-1.06,0-2.43.49-2.52,1.73Z" transform="translate(-45.63 -92.56)"/><ellipse class="cls-13" cx="88.81" cy="179.71" rx="5.25" ry="6.51" transform="translate(-95.7 -57.4) rotate(-17.56)"/><ellipse class="cls-13" cx="158.47" cy="150.5" rx="5.25" ry="6.51" transform="translate(-83.64 -37.75) rotate(-17.56)"/></g></svg>